# xmcd CD database file
#
# Track frame offsets:
#	150
#	14405
#	36352
#	58933
#	84279
#	102870
#	112867
#	126828
#	143475
#	161550
#	181425
#	195400
#	217640
#	245107
#	268186
#	294888
#	314960
#
# Disc length: 4467 seconds
#
# Revision: 0
# Processed by: cddbd v1.5.2PL0 Copyright (c) Steve Scherf et al.
# Submitted via: CDex 1.51
#
DISCID=f1117111
DTITLE=Various Artist - Best New Age [CD4)
DYEAR=2007
DGENRE=New Age
TTITLE0=The Heart Asks Pleasure First/The Promise
TTITLE1=Moon Riber/Piano Concerto No.2, 1st Movement
TTITLE2=When I Fall In Love/Liebestraume
TTITLE3=Bonfa: Manha De Carnival
TTITLE4=Virtue
TTITLE5=Gabriel's Oboe
TTITLE6=Etude
TTITLE7=Open Arms
TTITLE8=As Tears Go By/Ruby Tuesday
TTITLE9=My Heart Will Go On
TTITLE10=Millennium Theme
TTITLE11=All The Way Home
TTITLE12=Winter's Eve
TTITLE13=Mountains In The Mist
TTITLE14=Sign Of The Snow Crane
TTITLE15=Delicate Balance
TTITLE16=Touchstone
EXTD=YEAR: 2007
EXTT0=
EXTT1=
EXTT2=
EXTT3=
EXTT4=
EXTT5=
EXTT6=
EXTT7=
EXTT8=
EXTT9=
EXTT10=
EXTT11=
EXTT12=
EXTT13=
EXTT14=
EXTT15=
EXTT16=
PLAYORDER=
